<svg width="22" height="22" viewBox="0 0 22 22" fill="none" xmlns="http://www.w3.org/2000/svg">
<path d="M20.625 6.875H19.25V5.5C19.25 5.31766 19.1776 5.1428 19.0486 5.01386C18.9197 4.88493 18.7448 4.8125 18.5625 4.8125C18.3802 4.8125 18.2053 4.88493 18.0764 5.01386C17.9474 5.1428 17.875 5.31766 17.875 5.5V6.875H16.5C16.3177 6.875 16.1428 6.94743 16.0139 7.07636C15.8849 7.2053 15.8125 7.38016 15.8125 7.5625C15.8125 7.74484 15.8849 7.9197 16.0139 8.04864C16.1428 8.17757 16.3177 8.25 16.5 8.25H17.875V9.625C17.875 9.80734 17.9474 9.9822 18.0764 10.1111C18.2053 10.2401 18.3802 10.3125 18.5625 10.3125C18.7448 10.3125 18.9197 10.2401 19.0486 10.1111C19.1776 9.9822 19.25 9.80734 19.25 9.625V8.25H20.625C20.8073 8.25 20.9822 8.17757 21.1111 8.04864C21.2401 7.9197 21.3125 7.74484 21.3125 7.5625C21.3125 7.38016 21.2401 7.2053 21.1111 7.07636C20.9822 6.94743 20.8073 6.875 20.625 6.875Z" fill="#CEA666"/>
<path d="M12.6875 4.75H13.375V5.4375C13.375 5.61984 13.4474 5.7947 13.5764 5.92364C13.7053 6.05257 13.8802 6.125 14.0625 6.125C14.2448 6.125 14.4197 6.05257 14.5486 5.92364C14.6776 5.7947 14.75 5.61984 14.75 5.4375V4.75H15.4375C15.6198 4.75 15.7947 4.67757 15.9236 4.54864C16.0526 4.4197 16.125 4.24484 16.125 4.0625C16.125 3.88016 16.0526 3.7053 15.9236 3.57636C15.7947 3.44743 15.6198 3.375 15.4375 3.375H14.75V2.6875C14.75 2.50516 14.6776 2.3303 14.5486 2.20136C14.4197 2.07243 14.2448 2 14.0625 2C13.8802 2 13.7053 2.07243 13.5764 2.20136C13.4474 2.3303 13.375 2.50516 13.375 2.6875V3.375H12.6875C12.5052 3.375 12.3303 3.44743 12.2014 3.57636C12.0724 3.7053 12 3.88016 12 4.0625C12 4.24484 12.0724 4.4197 12.2014 4.54864C12.3303 4.67757 12.5052 4.75 12.6875 4.75Z" fill="#CEA666"/>
<path d="M18.6052 12.4265L18.4161 12.4608C17.1852 12.8006 15.8862 12.8077 14.6516 12.4816C13.417 12.1554 12.2911 11.5076 11.3886 10.6042C10.4861 9.70087 9.83936 8.57427 9.51439 7.33938C9.18943 6.10448 9.19784 4.80548 9.53878 3.5749C9.55563 3.52505 9.56433 3.47282 9.56456 3.42021C9.57318 3.27628 9.53632 3.13329 9.45921 3.01145C9.3821 2.88962 9.26864 2.79511 9.13487 2.7413C8.99228 2.68459 8.83453 2.67852 8.688 2.72412C7.24227 3.12759 5.92742 3.90268 4.87435 4.97224C3.82127 6.0418 3.06669 7.36852 2.68572 8.82034C2.30475 10.2722 2.31067 11.7985 2.70291 13.2473C3.09514 14.6961 3.86 16.0169 4.92135 17.0783C5.9827 18.1396 7.30352 18.9045 8.75234 19.2967C10.2012 19.6889 11.7274 19.6949 13.1793 19.3139C14.6311 18.9329 15.9578 18.1783 17.0274 17.1253C18.0969 16.0722 18.872 14.7573 19.2755 13.3116C19.3183 13.1774 19.3183 13.0333 19.2755 12.8991C19.2271 12.7602 19.1364 12.64 19.0162 12.5552C18.896 12.4705 18.7523 12.4254 18.6052 12.4265Z" fill="#CEA666"/>
</svg>
